#!OML:ASF H:\Dans Jumps\Project 1\Capture day 1\Session 1\subject.ASF
:FULLY-SPECIFIED
:DEGREES
332
root 0.452542 17.074 5.67708 5.5259 -2.77733 -1.00513
lowerback 7.4927 0.148075 -1.43047
upperback 3.9954 0.112938 1.37763
thorax -0.0811836 0.0207812 2.2137
lowerneck -12.6282 0.315496 -0.923041
upperneck 28.6775 0.25728 1.35867
head 11.3913 0.176269 0.691077
rclavicle -4.82053e-015 -7.35503e-015
rhumerus -23.1956 -4.7757 -81.1753
rradius 34.9507
rwrist 35.2867
rhand -23.4644 -28.904
rfingers 7.12502
rthumb 2.99461 -58.8627
lclavicle -4.82053e-015 -7.35503e-015
lhumerus -23.8739 -0.839219 83.2862
lradius 21.3377
lwrist 11.8997
lhand -26.6132 -8.93198
lfingers 7.12502
lthumb -0.046498 21.0478
rfemur -29.345 -1.74741 18.8684
rtibia 44.6906
rfoot -15.4403 0.417595
rtoes 4.99911
lfemur -28.6749 5.71574 -17.9721
ltibia 42.3479
lfoot -12.2734 6.03963
ltoes -7.71878
333
root 0.463822 17.1773 5.74309 6.10396 -2.94326 -1.08343
lowerback 6.85638 0.137946 -1.36951
upperback 3.89411 0.10899 1.36488
thorax 0.165999 0.0183281 2.16599
lowerneck -12.5485 0.387763 -0.848605
upperneck 28.6649 0.359233 1.29482
head 11.3692 0.221754 0.667759
rclavicle -7.20594e-015 5.76476e-015
rhumerus -23.4729 -4.48907 -81.1683
rradius 34.864
rwrist 35.2562
rhand -23.4465 -28.816
rfingers 7.12502
rthumb 3.01194 -58.7745
lclavicle -7.20594e-015 5.76476e-015
lhumerus -23.88 -0.837197 83.1338
lradius 21.0596
lwrist 11.5016
lhand -26.4939 -8.88888
lfingers 7.12502
lthumb 0.0687541 21.0908
rfemur -28.7661 -1.60947 18.892
rtibia 42.8433
rfoot -14.7356 0.661488
rtoes 5.76617
lfemur -28.1021 5.78072 -17.9858
ltibia 40.5957
lfoot -11.6174 5.86569
ltoes -6.78486
334
root 0.474487 17.2739 5.81003 6.67131 -3.09323 -1.15351
lowerback 6.19736 0.121241 -1.30917
upperback 3.78977 0.0957161 1.34577
thorax 0.423883 0.0113138 2.11278
lowerneck -12.4661 0.457551 -0.781386
upperneck 28.6812 0.458463 1.23374
head 11.3579 0.265535 0.6465
rclavicle -1.93815e-015 7.45443e-015
rhumerus -23.7702 -4.27085 -81.1527
rradius 34.7444
rwrist 35.2096
rhand -23.3576 -28.7287
rfingers 7.12502
rthumb 3.09778 -58.6859
lclavicle -1.93815e-015 7.45443e-015
lhumerus -23.8942 -0.839599 82.9622
lradius 20.8338
lwrist 11.5146
lhand -26.3071 -8.79747
lfingers 7.12502
lthumb 0.249168 21.1821
rfemur -28.2129 -1.51563 18.9092
rtibia 41.0652
rfoot -14.055 0.908552
rtoes 6.53546
lfemur -27.5455 5.87235 -18.0145
ltibia 38.8867
lfoot -10.9776 5.694
ltoes -5.91043
335
root 0.48449 17.3635 5.87702 7.20127 -3.2354 -1.21246
lowerback 5.55266 0.103946 -1.25878
upperback 3.68625 0.0803815 1.32359
thorax 0.675569 0.00329916 2.06214
lowerneck -12.4172 0.517999 -0.783541
upperneck 28.7754 0.542359 1.23756
head 11.3832 0.302791 0.659748
rclavicle 7.8023e-015 -2.98177e-016
rhumerus -24.0897 -4.10491 -81.1233
rradius 34.6026
rwrist 35.1455
rhand -23.2066 -28.641
rfingers 7.12502
rthumb 3.2436 -58.5961
lclavicle 7.8023e-015 -2.98177e-016
lhumerus -23.9097 -0.851514 82.7806
lradius 20.6217
lwrist 11.7411
lhand -26.0534 -8.67071
lfingers 7.12502
lthumb 0.494215 21.3085
rfemur -27.6639 -1.43991 18.9146
rtibia 39.3649
rfoot -13.4006 1.14174
rtoes 7.30315
lfemur -26.9793 5.9941 -18.0584
ltibia 37.2207
lfoot -10.3526 5.52301
ltoes -5.13348
